<svg xmlns="http://www.w3.org/2000/svg" viewBox="0 0 896 150" width="896" height="150" role="img" aria-label="Cinematic comet contribution graph"><rect x="0.00" y="0.00" width="896.00" height="150.00" fill="#010209" /><defs><linearGradient id="tail-grad" x1="0" y1="0" x2="1" y2="0"><stop offset="0%" stop-color="#c8e0ff" stop-opacity="0"/><stop offset="40%" stop-color="#c8e0ff" stop-opacity="0.1"/><stop offset="70%" stop-color="#d8ecff" stop-opacity="0.5"/><stop offset="90%" stop-color="#ffffff" stop-opacity="0.85"/><stop offset="100%" stop-color="#ffffff" stop-opacity="0"/></linearGradient><filter id="tail-blur" x="-20%" y="-100%" width="140%" height="300%"><feGaussianBlur stdDeviation="1.2"/></filter><filter id="organic-sphere" x="-80%" y="-80%" width="260%" height="260%"><feTurbulence type="fractalNoise" baseFrequency="0.035" numOctaves="2" seed="7" result="noise" /><feDisplacementMap in="SourceGraphic" in2="noise" scale="4" xChannelSelector="R" yChannelSelector="G" result="displaced" /><feGaussianBlur in="displaced" stdDeviation="1.4" /></filter></defs><text x="22.00" y="55.00" font-family="monospace" font-size="10.00" fill="rgba(122,172,216,0.75)" text-anchor="end">Mon</text><text x="22.00" y="87.00" font-family="monospace" font-size="10.00" fill="rgba(122,172,216,0.75)" text-anchor="end">Wed</text><text x="22.00" y="119.00" font-family="monospace" font-size="10.00" fill="rgba(122,172,216,0.75)" text-anchor="end">Fri</text><text x="38.00" y="12.00" font-family="monospace" font-size="10.00" fill="rgba(122,172,216,0.75)">Aug</text><text x="70.00" y="12.00" font-family="monospace" font-size="10.00" fill="rgba(122,172,216,0.75)">Sep</text><text x="134.00" y="12.00" font-family="monospace" font-size="10.00" fill="rgba(122,172,216,0.75)">Oct</text><text x="198.00" y="12.00" font-family="monospace" font-size="10.00" fill="rgba(122,172,216,0.75)">Nov</text><text x="278.00" y="12.00" font-family="monospace" font-size="10.00" fill="rgba(122,172,216,0.75)">Dec</text><text x="342.00" y="12.00" font-family="monospace" font-size="10.00" fill="rgba(122,172,216,0.75)">Jan</text><text x="422.00" y="12.00" font-family="monospace" font-size="10.00" fill="rgba(122,172,216,0.75)">Feb</text><text x="486.00" y="12.00" font-family="monospace" font-size="10.00" fill="rgba(122,172,216,0.75)">Mar</text><text x="550.00" y="12.00" font-family="monospace" font-size="10.00" fill="rgba(122,172,216,0.75)">Apr</text><text x="614.00" y="12.00" font-family="monospace" font-size="10.00" fill="rgba(122,172,216,0.75)">May</text><text x="694.00" y="12.00" font-family="monospace" font-size="10.00" fill="rgba(122,172,216,0.75)">Jun</text><text x="758.00" y="12.00" font-family="monospace" font-size="10.00" fill="rgba(122,172,216,0.75)">Jul</text><text x="822.00" y="12.00" font-family="monospace" font-size="10.00" fill="rgba(122,172,216,0.75)">Aug</text><circle cx="807.96" cy="46.33" r="0.94" fill="hsl(200,45%,88%)" opacity="0.18" /><circle cx="134.36" cy="53.21" r="0.21" fill="hsl(0,0%,100%)" opacity="0.18" /><circle cx="770.50" cy="44.69" r="0.99" fill="hsl(0,0%,100%)" opacity="0.18" /><circle cx="793.96" cy="111.00" r="0.20" fill="hsl(0,0%,100%)" opacity="0.18" /><circle cx="714.99" cy="134.35" r="0.90" fill="hsl(0,0%,100%)" opacity="0.18" /><circle cx="637.55" cy="49.69" r="0.73" fill="hsl(130,22%,80%)" opacity="0.18" /><circle cx="63.22" cy="31.95" r="1.07" fill="hsl(0,0%,100%)" opacity="0.18" /><circle cx="322.58" cy="53.80" r="0.79" fill="hsl(0,0%,100%)" opacity="0.18" /><circle cx="690.90" cy="68.85" r="0.38" fill="hsl(0,0%,100%)" opacity="0.18" /><circle cx="653.46" cy="112.46" r="0.63" fill="hsl(0,0%,100%)" opacity="0.18" /><circle cx="314.51" cy="48.89" r="0.47" fill="hsl(0,0%,100%)" opacity="0.18" /><circle cx="325.08" cy="61.47" r="0.30" fill="hsl(15,35%,80%)" opacity="0.18" /><circle cx="208.52" cy="91.73" r="0.70" fill="hsl(0,0%,100%)" opacity="0.18" /><circle cx="240.31" cy="52.10" r="0.09" fill="hsl(0,0%,100%)" opacity="0.18" /><circle cx="686.71" cy="120.61" r="1.04" fill="hsl(0,0%,100%)" opacity="0.18" /><circle cx="483.97" cy="61.90" r="0.15" fill="hsl(0,0%,100%)" opacity="0.18" /><circle cx="245.23" cy="56.99" r="0.30" fill="hsl(0,0%,100%)" opacity="0.18" /><circle cx="418.58" cy="132.06" r="0.48" fill="hsl(0,0%,100%)" opacity="0.18" /><circle cx="70.56" cy="69.85" r="0.69" fill="hsl(268,32%,82%)" opacity="0.18" /><circle cx="697.91" cy="67.97" r="0.02" fill="hsl(0,0%,100%)" opacity="0.18" /><circle cx="731.38" cy="79.16" r="0.34" fill="hsl(0,0%,100%)" opacity="0.18" /><circle cx="817.35" cy="73.05" r="0.79" fill="hsl(268,32%,82%)" opacity="0.18" /><circle cx="431.75" cy="48.13" r="0.39" fill="hsl(0,0%,100%)" opacity="0.18" /><circle cx="406.74" cy="138.47" r="0.15" fill="hsl(0,0%,100%)" opacity="0.18" /><circle cx="792.32" cy="114.70" r="1.08" fill="hsl(0,0%,100%)" opacity="0.18" /><circle cx="858.35" cy="37.07" r="0.46" fill="hsl(0,0%,100%)" opacity="0.18" /><circle cx="833.80" cy="44.43" r="0.39" fill="hsl(0,0%,100%)" opacity="0.18" /><circle cx="705.11" cy="39.05" r="0.68" fill="hsl(0,0%,100%)" opacity="0.18" /><circle cx="821.15" cy="126.10" r="1.33" fill="hsl(200,45%,88%)" opacity="0.18" /><circle cx="598.86" cy="110.75" r="0.16" fill="hsl(0,0%,100%)" opacity="0.18" /><circle cx="769.63" cy="95.89" r="1.31" fill="hsl(0,0%,100%)" opacity="0.18" /><circle cx="596.19" cy="121.35" r="0.46" fill="hsl(0,0%,100%)" opacity="0.18" /><circle cx="374.51" cy="78.59" r="1.18" fill="hsl(0,0%,100%)" opacity="0.18" /><circle cx="124.83" cy="46.66" r="0.76" fill="hsl(200,45%,88%)" opacity="0.18" /><circle cx="168.67" cy="119.12" r="0.69" fill="hsl(200,45%,88%)" opacity="0.18" /><circle cx="695.47" cy="53.32" r="1.42" fill="hsl(0,0%,100%)" opacity="0.18" /><circle cx="292.90" cy="117.87" r="0.49" fill="hsl(15,35%,80%)" opacity="0.18" /><circle cx="776.89" cy="131.94" r="1.37" fill="hsl(0,0%,100%)" opacity="0.18" /><circle cx="226.44" cy="119.04" r="0.92" fill="hsl(200,45%,88%)" opacity="0.18" /><circle cx="332.08" cy="95.37" r="1.46" fill="hsl(0,0%,100%)" opacity="0.18" /><circle cx="702.98" cy="133.93" r="0.84" fill="hsl(0,0%,100%)" opacity="0.18" /><circle cx="750.09" cy="106.86" r="1.16" fill="hsl(0,0%,100%)" opacity="0.18" /><circle cx="779.58" cy="44.26" r="0.72" fill="hsl(130,22%,80%)" opacity="0.18" /><circle cx="40.70" cy="63.03" r="0.36" fill="hsl(0,0%,100%)" opacity="0.18" /><circle cx="690.00" cy="74.38" r="1.20" fill="hsl(0,0%,100%)" opacity="0.18" /><circle cx="617.75" cy="83.22" r="0.36" fill="hsl(0,0%,100%)" opacity="0.18" /><circle cx="242.08" cy="96.07" r="0.02" fill="hsl(0,0%,100%)" opacity="0.18" /><circle cx="401.36" cy="128.94" r="0.13" fill="hsl(200,45%,88%)" opacity="0.18" /><circle cx="754.92" cy="41.77" r="0.47" fill="hsl(0,0%,100%)" opacity="0.18" /><circle cx="96.95" cy="59.40" r="0.05" fill="hsl(0,0%,100%)" opacity="0.18" /><circle cx="445.35" cy="118.36" r="1.26" fill="hsl(130,22%,80%)" opacity="0.18" /><circle cx="100.48" cy="109.37" r="0.87" fill="hsl(0,0%,100%)" opacity="0.18" /><circle cx="141.61" cy="73.70" r="0.22" fill="hsl(0,0%,100%)" opacity="0.18" /><circle cx="337.82" cy="66.68" r="0.04" fill="hsl(0,0%,100%)" opacity="0.18" /><circle cx="377.78" cy="115.03" r="0.22" fill="hsl(0,0%,100%)" opacity="0.18" /><circle cx="513.44" cy="62.52" r="0.29" fill="hsl(15,35%,80%)" opacity="0.18" /><circle cx="476.72" cy="101.13" r="1.05" fill="hsl(0,0%,100%)" opacity="0.18" /><circle cx="262.17" cy="43.22" r="1.07" fill="hsl(0,0%,100%)" opacity="0.18" /><circle cx="366.01" cy="111.04" r="0.91" fill="hsl(0,0%,100%)" opacity="0.18" /><circle cx="146.29" cy="41.33" r="1.35" fill="hsl(0,0%,100%)" opacity="0.18" /><circle cx="222.92" cy="98.74" r="0.21" fill="hsl(0,0%,100%)" opacity="0.18" /><circle cx="668.58" cy="78.73" r="0.12" fill="hsl(0,0%,100%)" opacity="0.18" /><circle cx="320.19" cy="109.79" r="1.41" fill="hsl(15,35%,80%)" opacity="0.18" /><circle cx="506.14" cy="33.23" r="0.85" fill="hsl(0,0%,100%)" opacity="0.18" /><circle cx="385.82" cy="73.22" r="1.48" fill="hsl(0,0%,100%)" opacity="0.18" /><circle cx="58.72" cy="127.94" r="0.68" fill="hsl(0,0%,100%)" opacity="0.18" /><circle cx="74.74" cy="105.15" r="1.12" fill="hsl(0,0%,100%)" opacity="0.18" /><circle cx="689.93" cy="78.73" r="0.50" fill="hsl(0,0%,100%)" opacity="0.18" /><circle cx="70.19" cy="66.17" r="0.83" fill="hsl(0,0%,100%)" opacity="0.18" /><circle cx="559.74" cy="94.71" r="0.56" fill="hsl(0,0%,100%)" opacity="0.18" /><circle cx="566.67" cy="93.13" r="1.42" fill="hsl(0,0%,100%)" opacity="0.18" /><circle cx="817.84" cy="52.54" r="1.09" fill="hsl(0,0%,100%)" opacity="0.18" /><circle cx="305.32" cy="128.38" r="0.33" fill="hsl(0,0%,100%)" opacity="0.18" /><circle cx="170.78" cy="108.54" r="1.24" fill="hsl(268,32%,82%)" opacity="0.18" /><circle cx="646.96" cy="57.76" r="0.29" fill="hsl(0,0%,100%)" opacity="0.18" /><circle cx="637.11" cy="100.63" r="1.42" fill="hsl(0,0%,100%)" opacity="0.18" /><circle cx="824.57" cy="31.82" r="1.25" fill="hsl(0,0%,100%)" opacity="0.18" /><circle cx="227.06" cy="60.46" r="0.19" fill="hsl(0,0%,100%)" opacity="0.18" /><circle cx="149.68" cy="49.28" r="0.87" fill="hsl(0,0%,100%)" opacity="0.18" /><circle cx="96.67" cy="79.29" r="0.68" fill="hsl(0,0%,100%)" opacity="0.18" /><circle cx="146.28" cy="79.49" r="2.64" fill="hsl(214,42%,54%)" opacity="0.21" /><circle cx="146.28" cy="79.49" r="1.67" fill="hsl(214.0,65%,61%)" opacity="0.75" /><circle cx="156.99" cy="132.84" r="2.55" fill="hsl(214,40%,52%)" opacity="0.21" /><circle cx="156.99" cy="132.84" r="1.61" fill="hsl(214.0,63%,58%)" opacity="0.73" /><circle cx="170.67" cy="39.86" r="2.55" fill="hsl(214,40%,52%)" opacity="0.21" /><circle cx="170.67" cy="39.86" r="1.61" fill="hsl(214.0,63%,58%)" opacity="0.73" /><circle cx="177.11" cy="64.85" r="2.55" fill="hsl(214,40%,52%)" opacity="0.21" /><circle cx="177.11" cy="64.85" r="1.61" fill="hsl(214.0,63%,58%)" opacity="0.73" /><circle cx="170.88" cy="127.71" r="2.75" fill="hsl(214,44%,57%)" opacity="0.22" /><circle cx="170.88" cy="127.71" r="1.76" fill="hsl(214.0,68%,66%)" opacity="0.77" /><circle cx="189.53" cy="36.97" r="2.89" fill="hsl(214,47%,61%)" opacity="0.23" /><circle cx="189.53" cy="36.97" r="1.86" fill="hsl(214.0,72%,73%)" opacity="0.80" /><circle cx="185.55" cy="89.14" r="2.44" fill="hsl(214,38%,50%)" opacity="0.20" /><circle cx="185.55" cy="89.14" r="1.52" fill="hsl(214.0,60%,54%)" opacity="0.71" /><circle cx="192.97" cy="127.52" r="2.55" fill="hsl(214,40%,52%)" opacity="0.21" /><circle cx="192.97" cy="127.52" r="1.61" fill="hsl(214.0,63%,58%)" opacity="0.73" /><circle cx="201.80" cy="30.86" r="2.75" fill="hsl(214,44%,57%)" opacity="0.22" /><circle cx="201.80" cy="30.86" r="1.76" fill="hsl(214.0,68%,66%)" opacity="0.77" /><circle cx="210.77" cy="72.29" r="2.44" fill="hsl(214,38%,50%)" opacity="0.20" /><circle cx="210.77" cy="72.29" r="1.52" fill="hsl(214.0,60%,54%)" opacity="0.71" /><circle cx="250.48" cy="128.56" r="2.25" fill="hsl(214,35%,46%)" opacity="0.18" /><circle cx="250.48" cy="128.56" r="1.37" fill="hsl(214.0,56%,48%)" opacity="0.66" /><circle cx="267.09" cy="72.27" r="2.44" fill="hsl(214,38%,50%)" opacity="0.20" /><circle cx="267.09" cy="72.27" r="1.52" fill="hsl(214.0,60%,54%)" opacity="0.71" /><circle cx="273.99" cy="79.40" r="2.70" fill="hsl(214,43%,56%)" opacity="0.22" /><circle cx="273.99" cy="79.40" r="1.72" fill="hsl(214.0,67%,64%)" opacity="0.76" /><circle cx="267.14" cy="96.70" r="3.15" fill="hsl(214,55%,69%)" opacity="0.26" /><circle cx="267.14" cy="96.70" r="2.06" fill="hsl(200.9,81%,87%)" opacity="0.86" /><circle cx="269.42" cy="116.22" r="3.01" fill="hsl(214,50%,65%)" opacity="0.24" /><circle cx="269.42" cy="116.22" r="1.95" fill="hsl(208.5,76%,79%)" opacity="0.83" /><circle cx="282.50" cy="72.52" r="2.86" fill="hsl(214,47%,60%)" opacity="0.23" /><circle cx="282.50" cy="72.52" r="1.84" fill="hsl(214.0,71%,71%)" opacity="0.80" /><circle cx="286.10" cy="83.13" r="2.70" fill="hsl(214,43%,56%)" opacity="0.22" /><circle cx="286.10" cy="83.13" r="1.72" fill="hsl(214.0,67%,64%)" opacity="0.76" /><circle cx="289.20" cy="103.86" r="2.25" fill="hsl(214,35%,46%)" opacity="0.18" /><circle cx="289.20" cy="103.86" r="1.37" fill="hsl(214.0,56%,48%)" opacity="0.66" /><circle cx="298.68" cy="104.58" r="2.55" fill="hsl(214,40%,52%)" opacity="0.21" /><circle cx="298.68" cy="104.58" r="1.61" fill="hsl(214.0,63%,58%)" opacity="0.73" /><circle cx="322.54" cy="39.85" r="2.64" fill="hsl(214,42%,54%)" opacity="0.21" /><circle cx="322.54" cy="39.85" r="1.67" fill="hsl(214.0,65%,61%)" opacity="0.75" /><circle cx="317.24" cy="51.65" r="2.83" fill="hsl(214,46%,59%)" opacity="0.23" /><circle cx="317.24" cy="51.65" r="1.82" fill="hsl(214.0,70%,70%)" opacity="0.79" /><circle cx="321.15" cy="63.97" r="2.75" fill="hsl(214,44%,57%)" opacity="0.22" /><circle cx="321.15" cy="63.97" r="1.76" fill="hsl(214.0,68%,66%)" opacity="0.77" /><circle cx="318.38" cy="83.33" r="2.44" fill="hsl(214,38%,50%)" opacity="0.20" /><circle cx="318.38" cy="83.33" r="1.52" fill="hsl(214.0,60%,54%)" opacity="0.71" /><circle cx="323.00" cy="94.94" r="2.89" fill="hsl(214,47%,61%)" opacity="0.23" /><circle cx="323.00" cy="94.94" r="1.86" fill="hsl(214.0,72%,73%)" opacity="0.80" /><circle cx="322.50" cy="135.98" r="2.25" fill="hsl(214,35%,46%)" opacity="0.18" /><circle cx="322.50" cy="135.98" r="1.37" fill="hsl(214.0,56%,48%)" opacity="0.66" /><circle cx="329.21" cy="39.76" r="2.44" fill="hsl(214,38%,50%)" opacity="0.20" /><circle cx="329.21" cy="39.76" r="1.52" fill="hsl(214.0,60%,54%)" opacity="0.71" /><circle cx="330.70" cy="128.79" r="2.75" fill="hsl(214,44%,57%)" opacity="0.22" /><circle cx="330.70" cy="128.79" r="1.76" fill="hsl(214.0,68%,66%)" opacity="0.77" /><circle cx="369.59" cy="104.21" r="2.44" fill="hsl(214,38%,50%)" opacity="0.20" /><circle cx="369.59" cy="104.21" r="1.52" fill="hsl(214.0,60%,54%)" opacity="0.71" /><circle cx="370.29" cy="110.80" r="2.64" fill="hsl(214,42%,54%)" opacity="0.21" /><circle cx="370.29" cy="110.80" r="1.67" fill="hsl(214.0,65%,61%)" opacity="0.75" /><circle cx="361.63" cy="136.61" r="2.79" fill="hsl(214,45%,58%)" opacity="0.23" /><circle cx="361.63" cy="136.61" r="1.79" fill="hsl(214.0,69%,68%)" opacity="0.78" /><circle cx="378.79" cy="39.83" r="2.44" fill="hsl(214,38%,50%)" opacity="0.20" /><circle cx="378.79" cy="39.83" r="1.52" fill="hsl(214.0,60%,54%)" opacity="0.71" /><circle cx="384.99" cy="135.29" r="2.64" fill="hsl(214,42%,54%)" opacity="0.21" /><circle cx="384.99" cy="135.29" r="1.67" fill="hsl(214.0,65%,61%)" opacity="0.75" /><circle cx="398.96" cy="36.39" r="3.11" fill="hsl(214,53%,68%)" opacity="0.25" /><circle cx="398.96" cy="36.39" r="2.03" fill="hsl(203.3,80%,84%)" opacity="0.85" /><circle cx="402.69" cy="56.58" r="2.89" fill="hsl(214,47%,61%)" opacity="0.23" /><circle cx="402.69" cy="56.58" r="1.86" fill="hsl(214.0,72%,73%)" opacity="0.80" /><circle cx="402.93" cy="63.80" r="2.70" fill="hsl(214,43%,56%)" opacity="0.22" /><circle cx="402.93" cy="63.80" r="1.72" fill="hsl(214.0,67%,64%)" opacity="0.76" /><circle cx="402.28" cy="81.15" r="2.64" fill="hsl(214,42%,54%)" opacity="0.21" /><circle cx="402.28" cy="81.15" r="1.67" fill="hsl(214.0,65%,61%)" opacity="0.75" /><circle cx="433.70" cy="33.04" r="2.25" fill="hsl(214,35%,46%)" opacity="0.18" /><circle cx="433.70" cy="33.04" r="1.37" fill="hsl(214.0,56%,48%)" opacity="0.66" /><circle cx="434.07" cy="80.96" r="2.25" fill="hsl(214,35%,46%)" opacity="0.18" /><circle cx="434.07" cy="80.96" r="1.37" fill="hsl(214.0,56%,48%)" opacity="0.66" /><circle cx="433.99" cy="111.41" r="2.44" fill="hsl(214,38%,50%)" opacity="0.20" /><circle cx="433.99" cy="111.41" r="1.52" fill="hsl(214.0,60%,54%)" opacity="0.71" /><circle cx="433.49" cy="128.41" r="2.44" fill="hsl(214,38%,50%)" opacity="0.20" /><circle cx="433.49" cy="128.41" r="1.52" fill="hsl(214.0,60%,54%)" opacity="0.71" /><circle cx="445.11" cy="51.95" r="2.25" fill="hsl(214,35%,46%)" opacity="0.18" /><circle cx="445.11" cy="51.95" r="1.37" fill="hsl(214.0,56%,48%)" opacity="0.66" /><circle cx="457.08" cy="31.07" r="3.17" fill="hsl(214,55%,70%)" opacity="0.26" /><circle cx="457.08" cy="31.07" r="2.08" fill="hsl(200.0,82%,88%)" opacity="0.87" /><circle cx="462.57" cy="52.12" r="2.86" fill="hsl(214,47%,60%)" opacity="0.23" /><circle cx="462.57" cy="52.12" r="1.84" fill="hsl(214.0,71%,71%)" opacity="0.80" /><circle cx="457.73" cy="64.59" r="3.04" fill="hsl(214,51%,65%)" opacity="0.25" /><circle cx="457.73" cy="64.59" r="1.98" fill="hsl(207.0,77%,80%)" opacity="0.84" /><circle cx="465.85" cy="87.87" r="2.86" fill="hsl(214,47%,60%)" opacity="0.23" /><circle cx="465.85" cy="87.87" r="1.84" fill="hsl(214.0,71%,71%)" opacity="0.80" /><circle cx="474.20" cy="39.53" r="2.70" fill="hsl(214,43%,56%)" opacity="0.22" /><circle cx="474.20" cy="39.53" r="1.72" fill="hsl(214.0,67%,64%)" opacity="0.76" /><circle cx="482.66" cy="47.90" r="2.44" fill="hsl(214,38%,50%)" opacity="0.20" /><circle cx="482.66" cy="47.90" r="1.52" fill="hsl(214.0,60%,54%)" opacity="0.71" /><circle cx="482.48" cy="65.08" r="2.89" fill="hsl(214,47%,61%)" opacity="0.23" /><circle cx="482.48" cy="65.08" r="1.86" fill="hsl(214.0,72%,73%)" opacity="0.80" /><circle cx="481.47" cy="79.59" r="2.83" fill="hsl(214,46%,59%)" opacity="0.23" /><circle cx="481.47" cy="79.59" r="1.82" fill="hsl(214.0,70%,70%)" opacity="0.79" /><circle cx="490.46" cy="32.73" r="2.75" fill="hsl(214,44%,57%)" opacity="0.22" /><circle cx="490.46" cy="32.73" r="1.76" fill="hsl(214.0,68%,66%)" opacity="0.77" /><circle cx="497.70" cy="79.77" r="2.55" fill="hsl(214,40%,52%)" opacity="0.21" /><circle cx="497.70" cy="79.77" r="1.61" fill="hsl(214.0,63%,58%)" opacity="0.73" /><circle cx="489.10" cy="103.42" r="2.64" fill="hsl(214,42%,54%)" opacity="0.21" /><circle cx="489.10" cy="103.42" r="1.67" fill="hsl(214.0,65%,61%)" opacity="0.75" /><circle cx="490.91" cy="110.95" r="2.64" fill="hsl(214,42%,54%)" opacity="0.21" /><circle cx="490.91" cy="110.95" r="1.67" fill="hsl(214.0,65%,61%)" opacity="0.75" /><circle cx="497.40" cy="128.56" r="2.55" fill="hsl(214,40%,52%)" opacity="0.21" /><circle cx="497.40" cy="128.56" r="1.61" fill="hsl(214.0,63%,58%)" opacity="0.73" /><circle cx="514.23" cy="48.69" r="2.55" fill="hsl(214,40%,52%)" opacity="0.21" /><circle cx="514.23" cy="48.69" r="1.61" fill="hsl(214.0,63%,58%)" opacity="0.73" /><circle cx="514.69" cy="71.07" r="2.64" fill="hsl(214,42%,54%)" opacity="0.21" /><circle cx="514.69" cy="71.07" r="1.67" fill="hsl(214.0,65%,61%)" opacity="0.75" /><circle cx="514.14" cy="87.66" r="2.83" fill="hsl(214,46%,59%)" opacity="0.23" /><circle cx="514.14" cy="87.66" r="1.82" fill="hsl(214.0,70%,70%)" opacity="0.79" /><circle cx="513.06" cy="119.47" r="2.91" fill="hsl(214,48%,62%)" opacity="0.24" /><circle cx="513.06" cy="119.47" r="1.88" fill="hsl(213.2,73%,74%)" opacity="0.81" /><circle cx="531.00" cy="40.59" r="2.64" fill="hsl(214,42%,54%)" opacity="0.21" /><circle cx="531.00" cy="40.59" r="1.67" fill="hsl(214.0,65%,61%)" opacity="0.75" /><circle cx="520.81" cy="46.86" r="2.25" fill="hsl(214,35%,46%)" opacity="0.18" /><circle cx="520.81" cy="46.86" r="1.37" fill="hsl(214.0,56%,48%)" opacity="0.66" /><circle cx="521.54" cy="79.03" r="2.25" fill="hsl(214,35%,46%)" opacity="0.18" /><circle cx="521.54" cy="79.03" r="1.37" fill="hsl(214.0,56%,48%)" opacity="0.66" /><circle cx="530.19" cy="103.33" r="2.70" fill="hsl(214,43%,56%)" opacity="0.22" /><circle cx="530.19" cy="103.33" r="1.72" fill="hsl(214.0,67%,64%)" opacity="0.76" /><circle cx="530.07" cy="119.20" r="2.75" fill="hsl(214,44%,57%)" opacity="0.22" /><circle cx="530.07" cy="119.20" r="1.76" fill="hsl(214.0,68%,66%)" opacity="0.77" /><circle cx="521.52" cy="135.94" r="2.83" fill="hsl(214,46%,59%)" opacity="0.23" /><circle cx="521.52" cy="135.94" r="1.82" fill="hsl(214.0,70%,70%)" opacity="0.79" /><circle cx="541.25" cy="35.05" r="2.64" fill="hsl(214,42%,54%)" opacity="0.21" /><circle cx="541.25" cy="35.05" r="1.67" fill="hsl(214.0,65%,61%)" opacity="0.75" /><circle cx="542.65" cy="52.59" r="3.07" fill="hsl(214,52%,67%)" opacity="0.25" /><circle cx="542.65" cy="52.59" r="2.00" fill="hsl(205.0,79%,83%)" opacity="0.85" /><circle cx="545.06" cy="63.47" r="2.55" fill="hsl(214,40%,52%)" opacity="0.21" /><circle cx="545.06" cy="63.47" r="1.61" fill="hsl(214.0,63%,58%)" opacity="0.73" /><circle cx="539.01" cy="86.87" r="2.44" fill="hsl(214,38%,50%)" opacity="0.20" /><circle cx="539.01" cy="86.87" r="1.52" fill="hsl(214.0,60%,54%)" opacity="0.71" /><circle cx="546.31" cy="112.79" r="2.55" fill="hsl(214,40%,52%)" opacity="0.21" /><circle cx="546.31" cy="112.79" r="1.61" fill="hsl(214.0,63%,58%)" opacity="0.73" /><circle cx="578.59" cy="46.97" r="2.75" fill="hsl(214,44%,57%)" opacity="0.22" /><circle cx="578.59" cy="46.97" r="1.76" fill="hsl(214.0,68%,66%)" opacity="0.77" /><circle cx="578.40" cy="63.11" r="2.64" fill="hsl(214,42%,54%)" opacity="0.21" /><circle cx="578.40" cy="63.11" r="1.67" fill="hsl(214.0,65%,61%)" opacity="0.75" /><circle cx="570.76" cy="80.85" r="2.44" fill="hsl(214,38%,50%)" opacity="0.20" /><circle cx="570.76" cy="80.85" r="1.52" fill="hsl(214.0,60%,54%)" opacity="0.71" /><circle cx="578.36" cy="102.83" r="2.44" fill="hsl(214,38%,50%)" opacity="0.20" /><circle cx="578.36" cy="102.83" r="1.52" fill="hsl(214.0,60%,54%)" opacity="0.71" /><circle cx="578.63" cy="120.24" r="2.25" fill="hsl(214,35%,46%)" opacity="0.18" /><circle cx="578.63" cy="120.24" r="1.37" fill="hsl(214.0,56%,48%)" opacity="0.66" /><circle cx="571.18" cy="128.24" r="2.55" fill="hsl(214,40%,52%)" opacity="0.21" /><circle cx="571.18" cy="128.24" r="1.61" fill="hsl(214.0,63%,58%)" opacity="0.73" /><circle cx="586.82" cy="55.65" r="2.64" fill="hsl(214,42%,54%)" opacity="0.21" /><circle cx="586.82" cy="55.65" r="1.67" fill="hsl(214.0,65%,61%)" opacity="0.75" /><circle cx="586.08" cy="70.90" r="2.75" fill="hsl(214,44%,57%)" opacity="0.22" /><circle cx="586.08" cy="70.90" r="1.76" fill="hsl(214.0,68%,66%)" opacity="0.77" /><circle cx="585.40" cy="120.74" r="2.79" fill="hsl(214,45%,58%)" opacity="0.23" /><circle cx="585.40" cy="120.74" r="1.79" fill="hsl(214.0,69%,68%)" opacity="0.78" /><circle cx="594.26" cy="128.42" r="2.99" fill="hsl(214,50%,64%)" opacity="0.24" /><circle cx="594.26" cy="128.42" r="1.94" fill="hsl(209.3,76%,78%)" opacity="0.83" /><circle cx="605.75" cy="37.08" r="2.70" fill="hsl(214,43%,56%)" opacity="0.22" /><circle cx="605.75" cy="37.08" r="1.72" fill="hsl(214.0,67%,64%)" opacity="0.76" /><circle cx="621.69" cy="67.31" r="2.64" fill="hsl(214,42%,54%)" opacity="0.21" /><circle cx="621.69" cy="67.31" r="1.67" fill="hsl(214.0,65%,61%)" opacity="0.75" /><circle cx="627.04" cy="87.83" r="2.95" fill="hsl(214,49%,63%)" opacity="0.24" /><circle cx="627.04" cy="87.83" r="1.91" fill="hsl(211.1,74%,76%)" opacity="0.82" /><circle cx="617.34" cy="96.96" r="2.55" fill="hsl(214,40%,52%)" opacity="0.21" /><circle cx="617.34" cy="96.96" r="1.61" fill="hsl(214.0,63%,58%)" opacity="0.73" /><circle cx="621.46" cy="117.04" r="2.75" fill="hsl(214,44%,57%)" opacity="0.22" /><circle cx="621.46" cy="117.04" r="1.76" fill="hsl(214.0,68%,66%)" opacity="0.77" /><circle cx="626.93" cy="128.18" r="2.97" fill="hsl(214,50%,63%)" opacity="0.24" /><circle cx="626.93" cy="128.18" r="1.93" fill="hsl(210.2,75%,77%)" opacity="0.82" /><circle cx="643.09" cy="38.92" r="3.09" fill="hsl(214,53%,67%)" opacity="0.25" /><circle cx="643.09" cy="38.92" r="2.01" fill="hsl(204.4,79%,83%)" opacity="0.85" /><circle cx="633.91" cy="48.48" r="2.64" fill="hsl(214,42%,54%)" opacity="0.21" /><circle cx="633.91" cy="48.48" r="1.67" fill="hsl(214.0,65%,61%)" opacity="0.75" /><circle cx="634.95" cy="71.53" r="3.15" fill="hsl(214,55%,69%)" opacity="0.26" /><circle cx="634.95" cy="71.53" r="2.06" fill="hsl(200.9,81%,87%)" opacity="0.86" /><circle cx="642.42" cy="80.88" r="2.25" fill="hsl(214,35%,46%)" opacity="0.18" /><circle cx="642.42" cy="80.88" r="1.37" fill="hsl(214.0,56%,48%)" opacity="0.66" /><circle cx="635.19" cy="96.53" r="2.70" fill="hsl(214,43%,56%)" opacity="0.22" /><circle cx="635.19" cy="96.53" r="1.72" fill="hsl(214.0,67%,64%)" opacity="0.76" /><circle cx="642.84" cy="111.63" r="2.89" fill="hsl(214,47%,61%)" opacity="0.23" /><circle cx="642.84" cy="111.63" r="1.86" fill="hsl(214.0,72%,73%)" opacity="0.80" /><circle cx="641.11" cy="135.28" r="2.44" fill="hsl(214,38%,50%)" opacity="0.20" /><circle cx="641.11" cy="135.28" r="1.52" fill="hsl(214.0,60%,54%)" opacity="0.71" /><circle cx="658.40" cy="40.52" r="2.64" fill="hsl(214,42%,54%)" opacity="0.21" /><circle cx="658.40" cy="40.52" r="1.67" fill="hsl(214.0,65%,61%)" opacity="0.75" /><circle cx="651.06" cy="48.67" r="2.91" fill="hsl(214,48%,62%)" opacity="0.24" /><circle cx="651.06" cy="48.67" r="1.88" fill="hsl(213.2,73%,74%)" opacity="0.81" /><circle cx="653.54" cy="99.31" r="3.02" fill="hsl(214,51%,65%)" opacity="0.24" /><circle cx="653.54" cy="99.31" r="1.96" fill="hsl(207.7,77%,80%)" opacity="0.83" /><circle cx="650.86" cy="121.14" r="3.10" fill="hsl(214,53%,68%)" opacity="0.25" /><circle cx="650.86" cy="121.14" r="2.02" fill="hsl(203.9,79%,84%)" opacity="0.85" /><circle cx="648.91" cy="134.94" r="3.01" fill="hsl(214,50%,65%)" opacity="0.24" /><circle cx="648.91" cy="134.94" r="1.95" fill="hsl(208.5,76%,79%)" opacity="0.83" /><circle cx="666.72" cy="55.35" r="3.02" fill="hsl(214,51%,65%)" opacity="0.24" /><circle cx="666.72" cy="55.35" r="1.96" fill="hsl(207.7,77%,80%)" opacity="0.83" /><circle cx="673.73" cy="64.12" r="2.75" fill="hsl(214,44%,57%)" opacity="0.22" /><circle cx="673.73" cy="64.12" r="1.76" fill="hsl(214.0,68%,66%)" opacity="0.77" /><circle cx="674.31" cy="87.52" r="2.83" fill="hsl(214,46%,59%)" opacity="0.23" /><circle cx="674.31" cy="87.52" r="1.82" fill="hsl(214.0,70%,70%)" opacity="0.79" /><circle cx="673.43" cy="104.50" r="3.01" fill="hsl(214,50%,65%)" opacity="0.24" /><circle cx="673.43" cy="104.50" r="1.95" fill="hsl(208.5,76%,79%)" opacity="0.83" /><circle cx="665.43" cy="111.13" r="2.97" fill="hsl(214,50%,63%)" opacity="0.24" /><circle cx="665.43" cy="111.13" r="1.93" fill="hsl(210.2,75%,77%)" opacity="0.82" /><circle cx="674.35" cy="127.22" r="3.06" fill="hsl(214,52%,66%)" opacity="0.25" /><circle cx="674.35" cy="127.22" r="2.00" fill="hsl(205.7,78%,82%)" opacity="0.84" /><circle cx="690.64" cy="41.11" r="3.06" fill="hsl(214,52%,66%)" opacity="0.25" /><circle cx="690.64" cy="41.11" r="2.00" fill="hsl(205.7,78%,82%)" opacity="0.84" /><circle cx="684.94" cy="52.32" r="2.95" fill="hsl(214,49%,63%)" opacity="0.24" /><circle cx="684.94" cy="52.32" r="1.91" fill="hsl(211.1,74%,76%)" opacity="0.82" /><circle cx="690.38" cy="62.97" r="2.44" fill="hsl(214,38%,50%)" opacity="0.20" /><circle cx="690.38" cy="62.97" r="1.52" fill="hsl(214.0,60%,54%)" opacity="0.71" /><circle cx="690.11" cy="81.05" r="2.89" fill="hsl(214,47%,61%)" opacity="0.23" /><circle cx="690.11" cy="81.05" r="1.86" fill="hsl(214.0,72%,73%)" opacity="0.80" /><circle cx="687.18" cy="101.02" r="2.75" fill="hsl(214,44%,57%)" opacity="0.22" /><circle cx="687.18" cy="101.02" r="1.76" fill="hsl(214.0,68%,66%)" opacity="0.77" /><circle cx="681.01" cy="120.35" r="2.75" fill="hsl(214,44%,57%)" opacity="0.22" /><circle cx="681.01" cy="120.35" r="1.76" fill="hsl(214.0,68%,66%)" opacity="0.77" /><circle cx="682.56" cy="128.11" r="2.44" fill="hsl(214,38%,50%)" opacity="0.20" /><circle cx="682.56" cy="128.11" r="1.52" fill="hsl(214.0,60%,54%)" opacity="0.71" /><circle cx="698.87" cy="40.01" r="2.79" fill="hsl(214,45%,58%)" opacity="0.23" /><circle cx="698.87" cy="40.01" r="1.79" fill="hsl(214.0,69%,68%)" opacity="0.78" /><circle cx="698.84" cy="55.66" r="2.75" fill="hsl(214,44%,57%)" opacity="0.22" /><circle cx="698.84" cy="55.66" r="1.76" fill="hsl(214.0,68%,66%)" opacity="0.77" /><circle cx="706.13" cy="65.07" r="2.79" fill="hsl(214,45%,58%)" opacity="0.23" /><circle cx="706.13" cy="65.07" r="1.79" fill="hsl(214.0,69%,68%)" opacity="0.78" /><circle cx="705.53" cy="80.77" r="2.75" fill="hsl(214,44%,57%)" opacity="0.22" /><circle cx="705.53" cy="80.77" r="1.76" fill="hsl(214.0,68%,66%)" opacity="0.77" /><circle cx="697.93" cy="119.08" r="3.17" fill="hsl(214,55%,70%)" opacity="0.26" /><circle cx="697.93" cy="119.08" r="2.08" fill="hsl(200.0,82%,88%)" opacity="0.87" /><circle cx="698.05" cy="135.05" r="2.95" fill="hsl(214,49%,63%)" opacity="0.24" /><circle cx="698.05" cy="135.05" r="1.91" fill="hsl(211.1,74%,76%)" opacity="0.82" /><circle cx="714.64" cy="32.41" r="2.95" fill="hsl(214,49%,63%)" opacity="0.24" /><circle cx="714.64" cy="32.41" r="1.91" fill="hsl(211.1,74%,76%)" opacity="0.82" /><circle cx="721.21" cy="48.42" r="2.91" fill="hsl(214,48%,62%)" opacity="0.24" /><circle cx="721.21" cy="48.42" r="1.88" fill="hsl(213.2,73%,74%)" opacity="0.81" /><circle cx="722.41" cy="80.62" r="2.86" fill="hsl(214,47%,60%)" opacity="0.23" /><circle cx="722.41" cy="80.62" r="1.84" fill="hsl(214.0,71%,71%)" opacity="0.80" /><circle cx="717.33" cy="101.08" r="2.83" fill="hsl(214,46%,59%)" opacity="0.23" /><circle cx="717.33" cy="101.08" r="1.82" fill="hsl(214.0,70%,70%)" opacity="0.79" /><circle cx="722.62" cy="118.94" r="2.99" fill="hsl(214,50%,64%)" opacity="0.24" /><circle cx="722.62" cy="118.94" r="1.94" fill="hsl(209.3,76%,78%)" opacity="0.83" /><circle cx="722.92" cy="128.27" r="2.79" fill="hsl(214,45%,58%)" opacity="0.23" /><circle cx="722.92" cy="128.27" r="1.79" fill="hsl(214.0,69%,68%)" opacity="0.78" /><circle cx="737.97" cy="32.08" r="2.83" fill="hsl(214,46%,59%)" opacity="0.23" /><circle cx="737.97" cy="32.08" r="1.82" fill="hsl(214.0,70%,70%)" opacity="0.79" /><circle cx="738.38" cy="56.45" r="2.99" fill="hsl(214,50%,64%)" opacity="0.24" /><circle cx="738.38" cy="56.45" r="1.94" fill="hsl(209.3,76%,78%)" opacity="0.83" /><circle cx="734.41" cy="69.11" r="3.06" fill="hsl(214,52%,66%)" opacity="0.25" /><circle cx="734.41" cy="69.11" r="2.00" fill="hsl(205.7,78%,82%)" opacity="0.84" /><circle cx="737.29" cy="79.06" r="3.05" fill="hsl(214,52%,66%)" opacity="0.25" /><circle cx="737.29" cy="79.06" r="1.99" fill="hsl(206.3,78%,81%)" opacity="0.84" /><circle cx="729.78" cy="96.13" r="3.01" fill="hsl(214,50%,65%)" opacity="0.24" /><circle cx="729.78" cy="96.13" r="1.95" fill="hsl(208.5,76%,79%)" opacity="0.83" /><circle cx="730.00" cy="119.48" r="2.70" fill="hsl(214,43%,56%)" opacity="0.22" /><circle cx="730.00" cy="119.48" r="1.72" fill="hsl(214.0,67%,64%)" opacity="0.76" /><circle cx="738.30" cy="136.93" r="3.09" fill="hsl(214,53%,67%)" opacity="0.25" /><circle cx="738.30" cy="136.93" r="2.01" fill="hsl(204.4,79%,83%)" opacity="0.85" /><circle cx="754.38" cy="32.38" r="2.93" fill="hsl(214,49%,62%)" opacity="0.24" /><circle cx="754.38" cy="32.38" r="1.90" fill="hsl(212.1,74%,75%)" opacity="0.81" /><circle cx="754.13" cy="48.99" r="2.64" fill="hsl(214,42%,54%)" opacity="0.21" /><circle cx="754.13" cy="48.99" r="1.67" fill="hsl(214.0,65%,61%)" opacity="0.75" /><circle cx="745.88" cy="63.36" r="2.91" fill="hsl(214,48%,62%)" opacity="0.24" /><circle cx="745.88" cy="63.36" r="1.88" fill="hsl(213.2,73%,74%)" opacity="0.81" /><circle cx="746.58" cy="88.39" r="2.95" fill="hsl(214,49%,63%)" opacity="0.24" /><circle cx="746.58" cy="88.39" r="1.91" fill="hsl(211.1,74%,76%)" opacity="0.82" /><circle cx="753.82" cy="96.59" r="3.10" fill="hsl(214,53%,68%)" opacity="0.25" /><circle cx="753.82" cy="96.59" r="2.02" fill="hsl(203.9,79%,84%)" opacity="0.85" /><circle cx="754.53" cy="113.02" r="2.83" fill="hsl(214,46%,59%)" opacity="0.23" /><circle cx="754.53" cy="113.02" r="1.82" fill="hsl(214.0,70%,70%)" opacity="0.79" /><circle cx="749.96" cy="132.59" r="2.44" fill="hsl(214,38%,50%)" opacity="0.20" /><circle cx="749.96" cy="132.59" r="1.52" fill="hsl(214.0,60%,54%)" opacity="0.71" /><circle cx="770.99" cy="38.94" r="2.25" fill="hsl(214,35%,46%)" opacity="0.18" /><circle cx="770.99" cy="38.94" r="1.37" fill="hsl(214.0,56%,48%)" opacity="0.66" /><circle cx="767.05" cy="52.27" r="2.86" fill="hsl(214,47%,60%)" opacity="0.23" /><circle cx="767.05" cy="52.27" r="1.84" fill="hsl(214.0,71%,71%)" opacity="0.80" /><circle cx="762.78" cy="72.88" r="2.83" fill="hsl(214,46%,59%)" opacity="0.23" /><circle cx="762.78" cy="72.88" r="1.82" fill="hsl(214.0,70%,70%)" opacity="0.79" /><circle cx="760.90" cy="80.28" r="2.91" fill="hsl(214,48%,62%)" opacity="0.24" /><circle cx="760.90" cy="80.28" r="1.88" fill="hsl(213.2,73%,74%)" opacity="0.81" /><circle cx="770.33" cy="104.67" r="2.86" fill="hsl(214,47%,60%)" opacity="0.23" /><circle cx="770.33" cy="104.67" r="1.84" fill="hsl(214.0,71%,71%)" opacity="0.80" /><circle cx="761.07" cy="112.79" r="2.75" fill="hsl(214,44%,57%)" opacity="0.22" /><circle cx="761.07" cy="112.79" r="1.76" fill="hsl(214.0,68%,66%)" opacity="0.77" /><circle cx="761.80" cy="136.69" r="3.02" fill="hsl(214,51%,65%)" opacity="0.24" /><circle cx="761.80" cy="136.69" r="1.96" fill="hsl(207.7,77%,80%)" opacity="0.83" /><circle cx="781.29" cy="35.62" r="2.75" fill="hsl(214,44%,57%)" opacity="0.22" /><circle cx="781.29" cy="35.62" r="1.76" fill="hsl(214.0,68%,66%)" opacity="0.77" /><circle cx="777.52" cy="48.36" r="3.04" fill="hsl(214,51%,65%)" opacity="0.25" /><circle cx="777.52" cy="48.36" r="1.98" fill="hsl(207.0,77%,80%)" opacity="0.84" /><circle cx="786.23" cy="71.99" r="2.55" fill="hsl(214,40%,52%)" opacity="0.21" /><circle cx="786.23" cy="71.99" r="1.61" fill="hsl(214.0,63%,58%)" opacity="0.73" /><circle cx="785.14" cy="80.07" r="2.75" fill="hsl(214,44%,57%)" opacity="0.22" /><circle cx="785.14" cy="80.07" r="1.76" fill="hsl(214.0,68%,66%)" opacity="0.77" /><circle cx="777.81" cy="95.07" r="2.70" fill="hsl(214,43%,56%)" opacity="0.22" /><circle cx="777.81" cy="95.07" r="1.72" fill="hsl(214.0,67%,64%)" opacity="0.76" /><circle cx="777.72" cy="119.18" r="2.75" fill="hsl(214,44%,57%)" opacity="0.22" /><circle cx="777.72" cy="119.18" r="1.76" fill="hsl(214.0,68%,66%)" opacity="0.77" /><circle cx="782.91" cy="132.80" r="2.83" fill="hsl(214,46%,59%)" opacity="0.23" /><circle cx="782.91" cy="132.80" r="1.82" fill="hsl(214.0,70%,70%)" opacity="0.79" /><circle cx="794.22" cy="31.38" r="2.75" fill="hsl(214,44%,57%)" opacity="0.22" /><circle cx="794.22" cy="31.38" r="1.76" fill="hsl(214.0,68%,66%)" opacity="0.77" /><circle cx="795.01" cy="48.70" r="2.25" fill="hsl(214,35%,46%)" opacity="0.18" /><circle cx="795.01" cy="48.70" r="1.37" fill="hsl(214.0,56%,48%)" opacity="0.66" /><circle cx="801.05" cy="73.03" r="2.79" fill="hsl(214,45%,58%)" opacity="0.23" /><circle cx="801.05" cy="73.03" r="1.79" fill="hsl(214.0,69%,68%)" opacity="0.78" /><circle cx="801.69" cy="87.56" r="2.95" fill="hsl(214,49%,63%)" opacity="0.24" /><circle cx="801.69" cy="87.56" r="1.91" fill="hsl(211.1,74%,76%)" opacity="0.82" /><circle cx="794.51" cy="96.54" r="2.64" fill="hsl(214,42%,54%)" opacity="0.21" /><circle cx="794.51" cy="96.54" r="1.67" fill="hsl(214.0,65%,61%)" opacity="0.75" /><circle cx="794.69" cy="111.96" r="2.79" fill="hsl(214,45%,58%)" opacity="0.23" /><circle cx="794.69" cy="111.96" r="1.79" fill="hsl(214.0,69%,68%)" opacity="0.78" /><circle cx="793.74" cy="136.07" r="2.83" fill="hsl(214,46%,59%)" opacity="0.23" /><circle cx="793.74" cy="136.07" r="1.82" fill="hsl(214.0,70%,70%)" opacity="0.79" /><circle cx="809.67" cy="31.47" r="2.44" fill="hsl(214,38%,50%)" opacity="0.20" /><circle cx="809.67" cy="31.47" r="1.52" fill="hsl(214.0,60%,54%)" opacity="0.71" /><circle cx="817.67" cy="48.72" r="2.25" fill="hsl(214,35%,46%)" opacity="0.18" /><circle cx="817.67" cy="48.72" r="1.37" fill="hsl(214.0,56%,48%)" opacity="0.66" /><circle cx="809.65" cy="71.49" r="2.89" fill="hsl(214,47%,61%)" opacity="0.23" /><circle cx="809.65" cy="71.49" r="1.86" fill="hsl(214.0,72%,73%)" opacity="0.80" /><circle cx="817.32" cy="87.78" r="2.83" fill="hsl(214,46%,59%)" opacity="0.23" /><circle cx="817.32" cy="87.78" r="1.82" fill="hsl(214.0,70%,70%)" opacity="0.79" /><circle cx="817.61" cy="95.81" r="2.70" fill="hsl(214,43%,56%)" opacity="0.22" /><circle cx="817.61" cy="95.81" r="1.72" fill="hsl(214.0,67%,64%)" opacity="0.76" /><circle cx="817.72" cy="120.78" r="2.64" fill="hsl(214,42%,54%)" opacity="0.21" /><circle cx="817.72" cy="120.78" r="1.67" fill="hsl(214.0,65%,61%)" opacity="0.75" /><circle cx="817.49" cy="128.73" r="2.64" fill="hsl(214,42%,54%)" opacity="0.21" /><circle cx="817.49" cy="128.73" r="1.67" fill="hsl(214.0,65%,61%)" opacity="0.75" /><circle cx="835.11" cy="40.37" r="2.55" fill="hsl(214,40%,52%)" opacity="0.21" /><circle cx="835.11" cy="40.37" r="1.61" fill="hsl(214.0,63%,58%)" opacity="0.73" /><circle cx="827.12" cy="46.95" r="2.70" fill="hsl(214,43%,56%)" opacity="0.22" /><circle cx="827.12" cy="46.95" r="1.72" fill="hsl(214.0,67%,64%)" opacity="0.76" /><circle cx="833.32" cy="64.74" r="2.44" fill="hsl(214,38%,50%)" opacity="0.20" /><circle cx="833.32" cy="64.74" r="1.52" fill="hsl(214.0,60%,54%)" opacity="0.71" /><circle cx="826.08" cy="80.20" r="2.44" fill="hsl(214,38%,50%)" opacity="0.20" /><circle cx="826.08" cy="80.20" r="1.52" fill="hsl(214.0,60%,54%)" opacity="0.71" /><circle cx="825.99" cy="103.34" r="2.44" fill="hsl(214,38%,50%)" opacity="0.20" /><circle cx="825.99" cy="103.34" r="1.52" fill="hsl(214.0,60%,54%)" opacity="0.71" /><circle cx="825.50" cy="121.13" r="2.79" fill="hsl(214,45%,58%)" opacity="0.23" /><circle cx="825.50" cy="121.13" r="1.79" fill="hsl(214.0,69%,68%)" opacity="0.78" /><circle cx="825.18" cy="136.79" r="2.79" fill="hsl(214,45%,58%)" opacity="0.23" /><circle cx="825.18" cy="136.79" r="1.79" fill="hsl(214.0,69%,68%)" opacity="0.78" /><circle cx="849.51" cy="39.57" r="2.44" fill="hsl(214,38%,50%)" opacity="0.20" /><circle cx="849.51" cy="39.57" r="1.52" fill="hsl(214.0,60%,54%)" opacity="0.71" /><circle cx="849.46" cy="48.14" r="2.64" fill="hsl(214,42%,54%)" opacity="0.21" /><circle cx="849.46" cy="48.14" r="1.67" fill="hsl(214.0,65%,61%)" opacity="0.75" /><circle cx="849.75" cy="71.38" r="2.25" fill="hsl(214,35%,46%)" opacity="0.18" /><circle cx="849.75" cy="71.38" r="1.37" fill="hsl(214.0,56%,48%)" opacity="0.66" /><circle cx="850.82" cy="88.28" r="2.89" fill="hsl(214,47%,61%)" opacity="0.23" /><circle cx="850.82" cy="88.28" r="1.86" fill="hsl(214.0,72%,73%)" opacity="0.80" /><circle cx="841.05" cy="97.13" r="2.55" fill="hsl(214,40%,52%)" opacity="0.21" /><circle cx="841.05" cy="97.13" r="1.61" fill="hsl(214.0,63%,58%)" opacity="0.73" /><circle cx="850.49" cy="120.21" r="2.97" fill="hsl(214,50%,63%)" opacity="0.24" /><circle cx="850.49" cy="120.21" r="1.93" fill="hsl(210.2,75%,77%)" opacity="0.82" /><circle cx="841.43" cy="127.19" r="2.70" fill="hsl(214,43%,56%)" opacity="0.22" /><circle cx="841.43" cy="127.19" r="1.72" fill="hsl(214.0,67%,64%)" opacity="0.76" /><circle cx="858.93" cy="38.89" r="2.79" fill="hsl(214,45%,58%)" opacity="0.23" /><circle cx="858.93" cy="38.89" r="1.79" fill="hsl(214.0,69%,68%)" opacity="0.78" /><circle cx="866.45" cy="48.59" r="2.79" fill="hsl(214,45%,58%)" opacity="0.23" /><circle cx="866.45" cy="48.59" r="1.79" fill="hsl(214.0,69%,68%)" opacity="0.78" /><circle cx="857.43" cy="64.51" r="2.79" fill="hsl(214,45%,58%)" opacity="0.23" /><circle cx="857.43" cy="64.51" r="1.79" fill="hsl(214.0,69%,68%)" opacity="0.78" /><circle cx="858.38" cy="87.22" r="2.86" fill="hsl(214,47%,60%)" opacity="0.23" /><circle cx="858.38" cy="87.22" r="1.84" fill="hsl(214.0,71%,71%)" opacity="0.80" /><circle cx="858.02" cy="94.96" r="2.44" fill="hsl(214,38%,50%)" opacity="0.20" /><circle cx="858.02" cy="94.96" r="1.52" fill="hsl(214.0,60%,54%)" opacity="0.71" /><circle cx="859.03" cy="119.75" r="2.91" fill="hsl(214,48%,62%)" opacity="0.24" /><circle cx="859.03" cy="119.75" r="1.88" fill="hsl(213.2,73%,74%)" opacity="0.81" /><circle cx="865.55" cy="135.07" r="2.79" fill="hsl(214,45%,58%)" opacity="0.23" /><circle cx="865.55" cy="135.07" r="1.79" fill="hsl(214.0,69%,68%)" opacity="0.78" /><circle cx="882.62" cy="32.10" r="2.44" fill="hsl(214,38%,50%)" opacity="0.20" /><circle cx="882.62" cy="32.10" r="1.52" fill="hsl(214.0,60%,54%)" opacity="0.71" /><circle cx="881.64" cy="48.01" r="2.55" fill="hsl(214,40%,52%)" opacity="0.21" /><circle cx="881.64" cy="48.01" r="1.61" fill="hsl(214.0,63%,58%)" opacity="0.73" /><circle cx="882.68" cy="71.78" r="2.75" fill="hsl(214,44%,57%)" opacity="0.22" /><circle cx="882.68" cy="71.78" r="1.76" fill="hsl(214.0,68%,66%)" opacity="0.77" /><circle cx="873.11" cy="79.86" r="2.83" fill="hsl(214,46%,59%)" opacity="0.23" /><circle cx="873.11" cy="79.86" r="1.82" fill="hsl(214.0,70%,70%)" opacity="0.79" /><path d="M 346.14,32.69 L 353.41,56.67 L 657.09,73.07 L 649.88,86.96 L 673.34,40.66 L 701.47,100.43 L 713.65,63.16" fill="none" stroke="rgba(255,255,255,0.1)" stroke-width="1.00" stroke-linejoin="round" /><g transform="rotate(-26.2 346.14 32.69)"><circle cx="346.14" cy="32.69" r="5.90" fill="hsla(48,100%,74%,0.35)" fill-opacity="0.35" /><circle cx="346.14" cy="32.69" r="3.54" fill="hsla(50,100%,99%,0.75)" filter="url(#organic-sphere)" /><line x1="343.27" y1="29.83" x2="349.00" y2="35.56" stroke="hsl(48,100%,92%)" stroke-width="0.40" stroke-opacity="0.42" stroke-linecap="round" /><line x1="343.27" y1="35.56" x2="349.00" y2="29.83" stroke="hsl(48,100%,92%)" stroke-width="0.40" stroke-opacity="0.42" stroke-linecap="round" /><line x1="337.14" y1="32.69" x2="355.14" y2="32.69" stroke="hsl(48,100%,92%)" stroke-width="0.50" stroke-linecap="round" /><line x1="346.14" y1="23.69" x2="346.14" y2="41.69" stroke="hsl(48,100%,92%)" stroke-width="0.50" stroke-linecap="round" /><circle cx="346.14" cy="32.69" r="1.38" fill="hsl(48,100%,92%)" /></g><g transform="rotate(5.1 353.41 56.67)"><circle cx="353.41" cy="56.67" r="5.90" fill="hsla(48,100%,74%,0.35)" fill-opacity="0.35" /><circle cx="353.41" cy="56.67" r="3.54" fill="hsla(50,100%,99%,0.75)" filter="url(#organic-sphere)" /><line x1="350.54" y1="53.80" x2="356.27" y2="59.53" stroke="hsl(48,100%,92%)" stroke-width="0.40" stroke-opacity="0.42" stroke-linecap="round" /><line x1="350.54" y1="59.53" x2="356.27" y2="53.80" stroke="hsl(48,100%,92%)" stroke-width="0.40" stroke-opacity="0.42" stroke-linecap="round" /><line x1="344.41" y1="56.67" x2="362.41" y2="56.67" stroke="hsl(48,100%,92%)" stroke-width="0.50" stroke-linecap="round" /><line x1="353.41" y1="47.67" x2="353.41" y2="65.67" stroke="hsl(48,100%,92%)" stroke-width="0.50" stroke-linecap="round" /><circle cx="353.41" cy="56.67" r="1.38" fill="hsl(48,100%,92%)" /></g><g transform="rotate(-34.8 657.09 73.07)"><circle cx="657.09" cy="73.07" r="5.90" fill="hsla(48,100%,74%,0.35)" fill-opacity="0.35" /><circle cx="657.09" cy="73.07" r="3.54" fill="hsla(50,100%,99%,0.75)" filter="url(#organic-sphere)" /><line x1="654.22" y1="70.20" x2="659.95" y2="75.93" stroke="hsl(48,100%,92%)" stroke-width="0.40" stroke-opacity="0.42" stroke-linecap="round" /><line x1="654.22" y1="75.93" x2="659.95" y2="70.20" stroke="hsl(48,100%,92%)" stroke-width="0.40" stroke-opacity="0.42" stroke-linecap="round" /><line x1="648.09" y1="73.07" x2="666.09" y2="73.07" stroke="hsl(48,100%,92%)" stroke-width="0.50" stroke-linecap="round" /><line x1="657.09" y1="64.07" x2="657.09" y2="82.07" stroke="hsl(48,100%,92%)" stroke-width="0.50" stroke-linecap="round" /><circle cx="657.09" cy="73.07" r="1.38" fill="hsl(48,100%,92%)" /></g><g transform="rotate(-28.2 649.88 86.96)"><circle cx="649.88" cy="86.96" r="5.90" fill="hsla(48,100%,74%,0.35)" fill-opacity="0.35" /><circle cx="649.88" cy="86.96" r="3.54" fill="hsla(50,100%,99%,0.75)" filter="url(#organic-sphere)" /><line x1="647.01" y1="84.10" x2="652.74" y2="89.82" stroke="hsl(48,100%,92%)" stroke-width="0.40" stroke-opacity="0.42" stroke-linecap="round" /><line x1="647.01" y1="89.82" x2="652.74" y2="84.10" stroke="hsl(48,100%,92%)" stroke-width="0.40" stroke-opacity="0.42" stroke-linecap="round" /><line x1="640.88" y1="86.96" x2="658.88" y2="86.96" stroke="hsl(48,100%,92%)" stroke-width="0.50" stroke-linecap="round" /><line x1="649.88" y1="77.96" x2="649.88" y2="95.96" stroke="hsl(48,100%,92%)" stroke-width="0.50" stroke-linecap="round" /><circle cx="649.88" cy="86.96" r="1.38" fill="hsl(48,100%,92%)" /></g><g transform="rotate(39.0 673.34 40.66)"><circle cx="673.34" cy="40.66" r="5.90" fill="hsla(48,100%,74%,0.35)" fill-opacity="0.35" /><circle cx="673.34" cy="40.66" r="3.54" fill="hsla(50,100%,99%,0.75)" filter="url(#organic-sphere)" /><line x1="670.48" y1="37.80" x2="676.21" y2="43.53" stroke="hsl(48,100%,92%)" stroke-width="0.40" stroke-opacity="0.42" stroke-linecap="round" /><line x1="670.48" y1="43.53" x2="676.21" y2="37.80" stroke="hsl(48,100%,92%)" stroke-width="0.40" stroke-opacity="0.42" stroke-linecap="round" /><line x1="664.34" y1="40.66" x2="682.34" y2="40.66" stroke="hsl(48,100%,92%)" stroke-width="0.50" stroke-linecap="round" /><line x1="673.34" y1="31.66" x2="673.34" y2="49.66" stroke="hsl(48,100%,92%)" stroke-width="0.50" stroke-linecap="round" /><circle cx="673.34" cy="40.66" r="1.38" fill="hsl(48,100%,92%)" /></g><g transform="rotate(36.9 701.47 100.43)"><circle cx="701.47" cy="100.43" r="5.90" fill="hsla(48,100%,74%,0.35)" fill-opacity="0.35" /><circle cx="701.47" cy="100.43" r="3.54" fill="hsla(50,100%,99%,0.75)" filter="url(#organic-sphere)" /><line x1="698.61" y1="97.57" x2="704.33" y2="103.30" stroke="hsl(48,100%,92%)" stroke-width="0.40" stroke-opacity="0.42" stroke-linecap="round" /><line x1="698.61" y1="103.30" x2="704.33" y2="97.57" stroke="hsl(48,100%,92%)" stroke-width="0.40" stroke-opacity="0.42" stroke-linecap="round" /><line x1="692.47" y1="100.43" x2="710.47" y2="100.43" stroke="hsl(48,100%,92%)" stroke-width="0.50" stroke-linecap="round" /><line x1="701.47" y1="91.43" x2="701.47" y2="109.43" stroke="hsl(48,100%,92%)" stroke-width="0.50" stroke-linecap="round" /><circle cx="701.47" cy="100.43" r="1.38" fill="hsl(48,100%,92%)" /></g><g transform="rotate(11.8 713.65 63.16)"><circle cx="713.65" cy="63.16" r="5.90" fill="hsla(48,100%,74%,0.35)" fill-opacity="0.35" /><circle cx="713.65" cy="63.16" r="3.54" fill="hsla(50,100%,99%,0.75)" filter="url(#organic-sphere)" /><line x1="710.78" y1="60.29" x2="716.51" y2="66.02" stroke="hsl(48,100%,92%)" stroke-width="0.40" stroke-opacity="0.42" stroke-linecap="round" /><line x1="710.78" y1="66.02" x2="716.51" y2="60.29" stroke="hsl(48,100%,92%)" stroke-width="0.40" stroke-opacity="0.42" stroke-linecap="round" /><line x1="704.65" y1="63.16" x2="722.65" y2="63.16" stroke="hsl(48,100%,92%)" stroke-width="0.50" stroke-linecap="round" /><line x1="713.65" y1="54.16" x2="713.65" y2="72.16" stroke="hsl(48,100%,92%)" stroke-width="0.50" stroke-linecap="round" /><circle cx="713.65" cy="63.16" r="1.38" fill="hsl(48,100%,92%)" /></g></svg>